Coordinates
version=1
nRows=16
nColumns=36
inDegrees=yes

Units are S.I. units (second, meters, Newtons, ...)
If the header above contains a line with 'inDegrees', this indicates whether rotational values are in degrees (yes) or radians (no).

endheader
time	pelvis_tilt	pelvis_list	pelvis_rotation	pelvis_tx	pelvis_ty	pelvis_tz	hip_flexion_r	hip_adduction_r	hip_rotation_r	knee_angle_r	knee_angle_r_beta	ankle_angle_r	subtalar_angle_r	mtp_angle_r	hip_flexion_l	hip_adduction_l	hip_rotation_l	knee_angle_l	knee_angle_l_beta	ankle_angle_l	subtalar_angle_l	mtp_angle_l	lumbar_extension	lumbar_bending	lumbar_rotation	arm_flex_r	arm_add_r	arm_rot_r	elbow_flex_r	pro_sup_r	arm_flex_l	arm_add_l	arm_rot_l	elbow_flex_l	pro_sup_l
      0.00000000	      3.75031209	     -3.93965216	      1.62902621	      0.63029771	      0.79534950	      0.73356407	     23.28656265	      5.43462434	      1.54916647	     14.72395588	      0.25698151	     -3.25102806	    -16.11245472	     -7.17091112	    -21.16970300	     -3.12414044	      0.67102687	     13.16810262	      0.22982675	      5.99634133	     -4.13729589	     -7.17091112	    -14.67906579	      4.75332146	     -5.12040631	      0.73817272	    -10.54101423	     -8.81546924	     15.81774081	     90.16780548	     10.74452065	    -12.91468638	      2.24641573	     18.06764490	     89.89539721
      0.01666670	      1.62350815	     -3.71275816	      1.26435275	      0.63760865	      0.79284706	      0.73665429	     26.76204790	      5.04614840	     -0.41934188	     19.66763826	      0.34326504	     -2.85560785	    -16.02072525	     -7.19107374	    -16.80873157	     -3.47374469	      0.01650431	     20.26380017	      0.35367003	      2.93812878	     -2.56209425	     -7.19107374	    -11.51011265	      4.73456436	     -5.86981856	      0.73936150	    -10.62603599	     -9.07322619	     13.48456304	     90.18991972	      9.43362164	    -12.67014349	      1.55756613	     16.72066149	     89.55981708
      0.03333330	      0.05433831	     -3.10147443	      1.37415741	      0.64011497	      0.79341785	      0.73917517	     27.98030471	      4.48942547	     -0.77054549	     21.42773592	      0.37398454	     -1.79438182	    -15.20214182	     -7.21391630	    -11.73496346	     -3.68097769	     -1.57387456	     27.97276722	      0.48821689	     -2.16506003	     -3.78779541	     -7.21391630	     -9.07280226	      4.28718546	     -6.34430782	      0.52186454	    -10.68739714	     -8.66927915	     11.74838148	     90.59395374	      9.00326399	    -12.70571787	      1.18029431	     15.45700156	     89.48708156
      0.05000000	      0.03785366	     -3.22959089	      1.36398376	      0.64015540	      0.79674901	      0.74156272	     27.41151893	      4.81474404	     -1.33663761	     23.12633098	      0.40363062	      0.34515514	    -14.87818807	     -7.23285899	     -7.50169396	     -4.97590657	     -3.79859851	     36.44484979	      0.63608262	     -7.82600027	     -5.53114955	     -7.23285899	     -9.20070212	      4.76540219	     -5.83628455	      0.66648701	    -11.05750633	     -8.29297939	     10.88218013	     90.95636797	      9.66473867	    -12.48677387	      1.10826996	     14.73491982	     89.67101503
      0.06666670	      0.33292687	     -3.23451067	      1.42780778	      0.64064723	      0.80124473	      0.74414930	     26.16102652	      5.06352724	     -1.54142836	     24.21604744	      0.42264976	      2.05534010	    -14.44597681	     -7.21914577	     -3.37346319	     -6.33579686	     -5.46137428	     44.71563454	      0.78043505	    -13.09524247	     -7.51623052	     -7.21914577	     -9.74623870	      4.84471423	     -5.29319596	      1.13533218	    -11.20507708	     -7.62649528	     10.04439466	     89.05858871	     10.66899215	    -12.34796560	      1.42854365	     13.84912146	     87.85239848
      0.08333330	      0.33150041	     -3.51213109	      1.75224021	      0.64166719	      0.80413547	      0.74529237	     24.84717227	      5.42310708	     -1.96815329	     24.69393146	      0.43099041	      3.52348641	    -13.96910543	     -7.24155996	      0.74987722	     -7.65955429	     -5.97188553	     51.75813287	      0.90334983	    -16.10426882	     -9.23259161	     -7.24155996	     -9.89117618	      5.29654913	     -4.86137949	      1.11604543	    -11.55169727	     -7.29381240	     10.55180060	     89.64523122	     11.35985122	    -12.09651071	      2.19089924	     13.46902569	     88.92432535
      0.10000000	      0.30515426	     -3.69523131	      2.01863369	      0.64163764	      0.80576270	      0.74583170	     23.31008506	      5.72143626	     -2.07245530	     24.61195528	      0.42955966	      4.54216442	    -13.72406604	     -7.25668444	      4.23665676	     -8.46281573	     -5.96641103	     57.02511390	      0.99527599	    -17.20350387	    -10.66186451	     -7.25668444	     -9.97644762	      5.64268584	     -4.67540160	      1.42981955	    -11.81442602	     -7.24722645	     11.00333760	     89.79646616	     11.75550663	    -11.78312045	      2.60113769	     13.26684385	     89.46428699
      0.11666670	      0.05066932	     -3.84827842	      2.34042366	      0.64131026	      0.80672059	      0.74604759	     21.84290585	      5.94603726	     -2.11671083	     24.11367800	      0.42086308	      5.56508264	    -13.34687658	     -7.26697640	      7.37285463	     -8.87071546	     -5.55586970	     60.74721805	      1.06023897	    -16.99609544	    -11.92378313	     -7.26697640	     -9.68580899	      5.92828506	     -4.60440815	      1.76141634	    -11.99016737	     -7.20793907	     11.51767354	     89.89679872	     11.96607391	    -11.43713630	      2.96610380	     13.16283417	     89.87694493
      0.13333330	     -0.68249102	     -3.85169296	      2.62000803	      0.64127071	      0.80707621	      0.74642733	     20.76546886	      6.00346105	     -2.11021569	     23.34308098	      0.40741362	      6.91091986	    -12.61335612	     -7.29378760	     10.47548557	     -8.90178970	     -5.13435828	     63.08727846	      1.10108073	    -15.81491803	    -12.90783787	     -7.29378760	     -8.70141631	      6.01003290	     -4.59377780	      1.84404667	    -12.12880237	     -7.13264362	     11.99114385	     90.24259470	     12.06256626	    -11.08531761	      3.91971549	     12.82523743	     91.03237342
      0.15000000	     -0.98723634	     -3.53169615	      2.72960552	      0.64039125	      0.80714269	      0.74787531	     19.05591831	      5.92967499	     -1.47078084	     22.23840070	      0.38813331	      8.01821297	    -12.45895729	     -7.29592754	     12.57366808	     -8.50402910	     -5.03519996	     64.01924595	      1.11734663	    -14.09663076	    -13.85386297	     -7.29592754	     -8.45697379	      5.64112249	     -4.50517291	      2.15553015	    -12.08169728	     -7.12334128	     12.38260912	     90.16936630	     12.10332487	    -10.88426969	      3.96432303	     13.03133486	     90.98682246
      0.16666670	     -2.25565168	     -3.79918342	      3.11895428	      0.63891104	      0.80558475	      0.74943113	     18.34288033	      6.17367426	     -2.00200052	     21.01256912	      0.36673852	      9.76568608	    -10.91077496	     -7.30561484	     15.95349582	     -8.48283735	     -4.41773227	     64.66470265	      1.12861197	    -10.46484742	    -13.66025115	     -7.30561484	     -6.52879750	      6.05083736	     -4.93487536	      2.00230124	    -12.34073980	     -7.07901912	     12.79518118	     90.09554343	     11.69301859	    -10.40242379	      4.29384237	     12.50638675	     91.17512964
      0.18333330	     -3.18763923	     -3.58163780	      2.98474316	      0.63717962	      0.80573472	      0.75205830	     17.35975900	      6.15744545	     -1.68220149	     19.93116325	      0.34786442	     11.08289139	    -10.19566025	     -7.31358701	     18.64978812	     -7.85095889	     -4.25634069	     64.29512888	      1.12216169	     -6.53752884	    -13.61311796	     -7.31358701	     -5.21876646	      5.76874917	     -4.66638041	      2.12621703	    -12.45818159	     -6.91750322	     13.13078881	     90.02393409	     11.43778567	    -10.18551308	      4.55889509	     12.32312587	     91.27103921
      0.20000000	     -4.05934288	     -3.18581234	      2.63207250	      0.63663310	      0.80901350	      0.75423341	     16.39536095	      5.98333956	     -1.23242416	     19.01920877	      0.33194781	     12.15993663	     -9.69340370	     -7.34644102	     21.18350725	     -6.95046602	     -4.23263909	     63.19292385	      1.10292459	     -2.35837905	    -13.40973624	     -7.34644102	     -4.06729987	      5.27564011	     -4.10970235	      2.37918962	    -12.80095239	     -4.95248150	     13.47606989	     88.30813265	     11.23322295	    -10.09630952	      6.59109507	     11.94262603	     90.43979332
      0.21666670	     -4.71080998	     -2.76164042	      2.12361604	      0.63709000	      0.81355692	      0.75560493	     15.28205777	      5.81496028	     -0.61188601	     18.23423593	      0.31824745	     12.86821412	     -9.46358812	     -7.33950464	     23.54747345	     -6.07840017	     -4.35782008	     61.49013329	      1.07320528	      1.33469226	    -12.94277312	     -7.33950464	     -3.24759477	      4.81101609	     -3.43623703	      2.99996101	    -13.05524904	     -4.77266615	     13.97642068	     86.70539531	     10.91320184	     -9.89741742	      6.48228875	     11.71476706	     88.98483191
      0.23333330	     -4.99480939	     -2.30044123	      1.50033988	      0.63767365	      0.81578034	      0.75636770	     13.90399176	      5.60794592	      0.04151397	     17.68677737	      0.30869250	     13.58374622	     -9.02691436	     -7.37800626	     25.53485445	     -5.35566440	     -4.80734627	     59.27205565	      1.03449253	      4.19984672	    -12.12255046	     -7.37800626	     -2.99206041	      4.26733418	     -2.31492753	      3.59384011	    -13.67891974	     -2.51204532	     14.79194770	     86.87258359	     10.70450685	     -9.91585510	      8.06364477	     11.98061930	     89.77478739
      0.25000000	     -5.21810737	     -1.91648164	      0.94694783	      0.63727886	      0.81407696	      0.75691173	     12.62620850	      5.39258338	      0.42251216	     17.40733213	      0.30381526	     14.16546067	     -8.46031721	     -7.38764381	     27.44820658	     -4.76821665	     -5.33748350	     56.70752783	      0.98973307	      5.84785373	    -11.55339412	     -7.38764381	     -2.82691060	      3.84267239	     -1.32206783	      4.27748321	    -14.06048347	     -2.50447193	     15.66022464	     84.94656106	     10.36327995	     -9.72988777	      7.83230127	     12.34247549	     87.70037879
